<svg id="Layer_1" data-name="Layer 1" xmlns="http://www.w3.org/2000/svg" viewBox="0 0 190 209.26"><defs><style>.cls-1{fill:#ddd;}.cls-2{fill:#fff;}</style></defs><path class="cls-1" d="M165.88,158.51c-.23-2.86-.5-5.71-.83-8.56-.15-1.34-.3-2.66-.47-4-.08-.51-.15-1-.23-1.55-.72-4.84-1.57-9.67-2.69-14.43-.32-1.38-.67-2.74-1-4.11,0,.15-.1.29-.15.45A213.4,213.4,0,0,0,155.09,147c-3.39,15.88-5.43,32-8.61,47.9-1.62,8.06-3.27,16.34-6.32,24-2.75,6.92-6.17,13.7-13.81,16.16-14.56,4.7-21.42-12.88-24.73-23.35-3.88-12.29-6.53-24.95-9.6-37.45q-.87-3.59-1.79-7.14c-3.43,16.52-5.2,33.56-11.6,49.19l-.15.36,56.2,32.56c5.84,3.39,13.79,4.84,21.45,4.37.23-.47.47-.93.69-1.4l.57-1.24c.82-2.07,1.59-4.17,2.25-6.3a134.71,134.71,0,0,0,3.83-15.49c.53-2.81,1-5.64,1.4-8.47v0c.08-.61.16-1.23.23-1.84.18-1.49.34-3,.49-4.48q.9-9.17,1.2-18.4A325,325,0,0,0,165.88,158.51Z" transform="translate(-58.71 -44.44)"/><path class="cls-1" d="M191.12,196.74c-.54,14.45-1.65,29.78-5.06,44.36l44.2-25.73c10.25-5.94,18.45-20.5,18.45-32.35v-3.51l-72.47-78.38c4.74,6.22,7.07,14.84,8.8,22.36C190.53,147.27,192,172.41,191.12,196.74Z" transform="translate(-58.71 -44.44)"/><path class="cls-2" d="M230.26,82.78,171.87,48.9c-10.25-5.94-27-5.94-37.24,0L76.75,82.78c-10.25,6-18,20.51-18,32.35V183a32.57,32.57,0,0,0,1.66,11.49c2.45-10.11,3.84-20.38,5.93-30.58,1.58-7.72,3-15.69,6.1-23,2.61-6.23,6.21-14,13.69-15.41,8-1.56,14.47,2.36,18.49,9.16L128,159.61c2.07-12.22,4.36-24.42,7.91-36.3,2.56-8.6,5.8-20.4,13.21-26.31,9.64-7.68,19.89-5.35,27.1,4.13l72.47,78.38V115.13C248.71,103.29,240.51,88.73,230.26,82.78Z" transform="translate(-58.71 -44.44)"/><path class="cls-1" d="M115.5,167.8c2.14,8.72,4.07,17.51,6.36,26.2,1.5-6.81,2.72-13.68,3.85-20.54.77-4.61,1.52-9.23,2.3-13.85l-23.47-24.92C110.38,144.55,112.81,156.8,115.5,167.8Z" transform="translate(-58.71 -44.44)"/></svg>